<svg width="85" height="85" xmlns="http://www.w3.org/2000/svg" xmlns:xlink="http://www.w3.org/1999/xlink" xml:space="preserve" overflow="hidden"><defs><clipPath id="clip0"><rect x="441" y="601" width="85" height="85"/></clipPath></defs><g clip-path="url(#clip0)" transform="translate(-441 -601)"><path d="M521.325 631.821 519.922 630.997C515.851 629.093 511.576 628.123 507.3 628.081L507.3 624.273C507.3 622.683 506.017 621.4 504.427 621.4L500.823 621.4C499.234 621.4 497.95 622.683 497.95 624.273L497.95 629.492C496.633 629.909 495.323 630.41 494.031 631.013L492.467 631.795C492.178 631.94 492 632.229 492 632.552L492 636.572 492.036 636.493 497.95 639.21 497.95 664.006C497.95 664.885 497.235 665.6 496.356 665.6L492 665.6 492 668.15C492 668.617 492.383 669 492.85 669L494.55 669 494.55 670.7 490.3 670.7 490.3 663.9 492 663.9 496.25 663.9 496.25 640.301 492 638.349 492 638.409 490.3 637.652 490.3 613.333C490.3 611.107 488.388 609.5 486.16 609.5L466.211 609.5C463.992 609.5 462.25 611.107 462.25 613.333L462.25 613.41C457.15 613.512 452.704 614.472 448.174 616.317L446.007 617.099C445.692 617.235 445.25 617.541 445.25 617.89L445.25 650.904C445.25 651.107 445.539 651.303 445.667 651.456L451.2 657.61 451.2 675.8 450.35 675.8C449.883 675.8 449.5 676.182 449.5 676.65 449.5 677.117 449.883 677.5 450.35 677.5L453.75 677.5C454.217 677.5 454.6 677.117 454.6 676.65 454.6 676.182 454.217 675.8 453.75 675.8L452.9 675.8 452.9 670.7 473.3 670.7 473.3 675.8 472.45 675.8C471.983 675.8 471.6 676.182 471.6 676.65 471.6 677.117 471.983 677.5 472.45 677.5L475.85 677.5C476.318 677.5 476.7 677.117 476.7 676.65 476.7 676.182 476.318 675.8 475.85 675.8L475 675.8 475 657.457 480.04 651.456C480.168 651.303 480.1 651.107 480.1 650.904L480.1 617.89C480.1 617.541 480.032 617.235 479.717 617.099L477.882 616.317C473.351 614.472 469.05 613.512 463.95 613.41L463.95 613.333C463.95 612.05 464.927 611.2 466.211 611.2L486.16 611.2C487.444 611.2 488.6 612.05 488.6 613.333L488.6 624.8 487.036 624.8C486.645 624.001 485.829 623.44 484.877 623.44 483.56 623.44 482.48 624.52 482.48 625.837 482.48 627.163 483.56 628.234 484.877 628.234 485.974 628.234 486.883 627.495 487.172 626.5L488.6 626.5 488.6 637.652 482.199 640.015C481.885 640.143 481.8 640.457 481.8 640.797L481.8 662.982C481.8 663.45 481.834 663.9 482.302 663.9L485.2 663.9 485.2 675.8 484.35 675.8C483.883 675.8 483.5 676.182 483.5 676.65 483.5 677.117 483.883 677.5 484.35 677.5L487.75 677.5C488.217 677.5 488.6 677.117 488.6 676.65 488.6 676.182 488.217 675.8 487.75 675.8L486.9 675.8 486.9 663.9 488.6 663.9 488.6 671.55C488.6 672.018 488.983 672.4 489.45 672.4L494.55 672.4 494.55 675.8 493.7 675.8C493.233 675.8 492.85 676.182 492.85 676.65 492.85 677.117 493.233 677.5 493.7 677.5L497.1 677.5C497.568 677.5 497.95 677.117 497.95 676.65 497.95 676.182 497.568 675.8 497.1 675.8L496.25 675.8 496.25 672.4 498.8 672.4C499.268 672.4 499.65 672.018 499.65 671.55L499.65 669 517.5 669 517.5 675.8 516.65 675.8C516.182 675.8 515.8 676.182 515.8 676.65 515.8 677.117 516.182 677.5 516.65 677.5L520.05 677.5C520.518 677.5 520.9 677.117 520.9 676.65 520.9 676.182 520.518 675.8 520.05 675.8L519.2 675.8 519.2 669 520.9 669C521.367 669 521.75 668.617 521.75 668.15L521.75 632.552C521.75 632.255 521.589 631.974 521.325 631.821ZM450.35 642.65C450.35 643.12 449.97 643.5 449.5 643.5 449.03 643.5 448.65 643.12 448.65 642.65L448.65 620.55C448.65 620.08 449.03 619.7 449.5 619.7 449.97 619.7 450.35 620.08 450.35 620.55L450.35 642.65ZM452.9 620.55C452.9 620.08 453.28 619.7 453.75 619.7 454.22 619.7 454.6 620.08 454.6 620.55L454.6 627.35C454.6 627.82 454.22 628.2 453.75 628.2 453.28 628.2 452.9 627.82 452.9 627.35L452.9 620.55ZM452.9 669 452.9 659.573 461.052 669 452.9 669ZM473.3 659.421 473.3 669 465.013 669 473.3 659.421ZM484.877 626.534C484.495 626.534 484.18 626.219 484.18 625.837 484.18 625.455 484.495 625.14 484.877 625.14 485.268 625.14 485.582 625.455 485.582 625.837 485.582 626.219 485.268 626.534 484.877 626.534ZM497.95 670.7 496.25 670.7 496.25 669 497.95 669 497.95 670.7ZM505.6 628.107C503.603 628.2 501.613 628.506 499.65 629.008L499.65 624.273C499.65 623.627 500.177 623.1 500.823 623.1L504.427 623.1C505.073 623.1 505.6 623.627 505.6 624.273L505.6 628.107Z" fill="#FFFFFF"/></g></svg>