<svg width="1120" height="586" xmlns="http://www.w3.org/2000/svg" xmlns:xlink="http://www.w3.org/1999/xlink" xml:space="preserve" overflow="hidden"><defs><clipPath id="clip0"><rect x="80" y="26" width="1120" height="586"/></clipPath></defs><g clip-path="url(#clip0)" transform="translate(-80 -26)"><path d="M217.241 338.008 198.168 338.287 198.168 357.123 217.241 357.405Z" fill="#BA975C" transform="matrix(-1.0003 0 0 1 1200 26.0739)"/><path d="M185.452 338.48 167.342 338.75 167.342 356.66 185.452 356.933Z" fill="#BA975C" transform="matrix(-1.0003 0 0 1 1200 26.0739)"/><path d="M154.627 338.93 137.41 339.183 137.41 356.23 154.627 356.481Z" fill="#BA975C" transform="matrix(-1.0003 0 0 1 1200 26.0739)"/><path d="M95.4875 339.803 79.8822 340.034 79.8822 355.376 95.4875 355.607Z" fill="#BA975C" transform="matrix(-1.0003 0 0 1 1200 26.0739)"/><path d="M67.1701 340.227 52.4285 340.445 52.4285 354.965 67.1701 355.187Z" fill="#BA975C" transform="matrix(-1.0003 0 0 1 1200 26.0739)"/><path d="M13.0943 341.03 0 341.219 0 354.194 13.0943 354.384Z" fill="#BA975C" transform="matrix(-1.0003 0 0 1 1200 26.0739)"/><path d="M217.241 117.958 198.168 122.752 198.168 141.578 217.241 137.352Z" fill="#BA975C" transform="matrix(-1.0003 0 0 1 1200 26.0739)"/><path d="M185.452 125.943 167.342 130.5 167.342 148.411 185.452 144.397Z" fill="#BA975C" transform="matrix(-1.0003 0 0 1 1200 26.0739)"/><path d="M154.627 133.691 137.41 138.017 137.41 155.054 154.627 151.236Z" fill="#BA975C" transform="matrix(-1.0003 0 0 1 1200 26.0739)"/><path d="M124.685 141.215 108.209 145.36 108.209 161.511 124.685 157.86Z" fill="#BA975C" transform="matrix(-1.0003 0 0 1 1200 26.0739)"/><path d="M95.4875 148.552 79.8822 152.476 79.8822 167.808 95.4875 164.346Z" fill="#BA975C" transform="matrix(-1.0003 0 0 1 1200 26.0739)"/><path d="M67.1701 155.664 52.4285 159.37 52.4285 173.899 67.1701 170.627Z" fill="#BA975C" transform="matrix(-1.0003 0 0 1 1200 26.0739)"/><path d="M39.7164 162.558 25.8193 166.052 25.8193 179.814 39.7164 176.734Z" fill="#BA975C" transform="matrix(-1.0003 0 0 1 1200 26.0739)"/><path d="M13.0943 169.253 0 172.544 0 185.516 13.0943 182.626Z" fill="#BA975C" transform="matrix(-1.0003 0 0 1 1200 26.0739)"/><path d="M25.8193 515.613 25.8193 529.362 39.7164 532.852 39.7164 518.695Z" fill="#BA975C" transform="matrix(-1.0003 0 0 1 1200 26.0739)"/><path d="M137.41 540.359 137.41 557.397 154.627 561.722 154.627 544.18Z" fill="#BA975C" transform="matrix(-1.0003 0 0 1 1200 26.0739)"/><path d="M217.241 310.5 198.168 311.344 198.168 330.176 217.241 329.897Z" fill="#BA975C" transform="matrix(-1.0003 0 0 1 1200 26.0739)"/><path d="M185.452 311.909 167.342 312.712 167.342 330.642 185.452 330.372Z" fill="#BA975C" transform="matrix(-1.0003 0 0 1 1200 26.0739)"/><path d="M154.627 313.274 137.41 314.032 137.41 331.072 154.627 330.819Z" fill="#BA975C" transform="matrix(-1.0003 0 0 1 1200 26.0739)"/><path d="M124.685 314.597 108.209 315.316 108.209 331.493 124.685 331.252Z" fill="#BA975C" transform="matrix(-1.0003 0 0 1 1200 26.0739)"/><path d="M95.4875 315.891 79.8822 316.601 79.8822 331.943 95.4875 331.711Z" fill="#BA975C" transform="matrix(-1.0003 0 0 1 1200 26.0739)"/><path d="M67.1701 317.146 52.4285 317.789 52.4285 332.334 67.1701 332.116Z" fill="#BA975C" transform="matrix(-1.0003 0 0 1 1200 26.0739)"/><path d="M39.7164 318.37 25.8193 318.993 25.8193 332.729 39.7164 332.52Z" fill="#BA975C" transform="matrix(-1.0003 0 0 1 1200 26.0739)"/><path d="M217.241 283.001 198.168 284.404 198.168 303.24 217.241 302.395Z" fill="#BA975C" transform="matrix(-1.0003 0 0 1 1200 26.0739)"/><path d="M185.452 285.348 167.342 286.684 167.342 304.604 185.452 303.802Z" fill="#BA975C" transform="matrix(-1.0003 0 0 1 1200 26.0739)"/><path d="M154.627 287.625 137.41 288.909 137.41 305.927 154.627 305.166Z" fill="#BA975C" transform="matrix(-1.0003 0 0 1 1200 26.0739)"/><path d="M124.685 289.844 108.209 291.057 108.209 307.221 124.685 306.489Z" fill="#BA975C" transform="matrix(-1.0003 0 0 1 1200 26.0739)"/><path d="M95.4875 292.001 79.8822 293.161 79.8822 308.477 95.4875 307.783Z" fill="#BA975C" transform="matrix(-1.0003 0 0 1 1200 26.0739)"/><path d="M67.1701 294.089 52.4285 295.18 52.4285 309.691 67.1701 309.048Z" fill="#BA975C" transform="matrix(-1.0003 0 0 1 1200 26.0739)"/><path d="M39.7164 296.115 25.8193 297.149 25.8193 310.885 39.7164 310.262Z" fill="#BA975C" transform="matrix(-1.0003 0 0 1 1200 26.0739)"/><path d="M13.0943 298.083 0 299.056 0 312.028 13.0943 311.463Z" fill="#BA975C" transform="matrix(-1.0003 0 0 1 1200 26.0739)"/><path d="M217.241 255.486 198.168 257.464 198.168 276.287 217.241 274.884Z" fill="#BA975C" transform="matrix(-1.0003 0 0 1 1200 26.0739)"/><path d="M185.452 258.778 167.342 260.653 167.342 278.564 185.452 277.231Z" fill="#BA975C" transform="matrix(-1.0003 0 0 1 1200 26.0739)"/><path d="M154.627 261.969 137.41 263.755 137.41 280.773 154.627 279.488Z" fill="#BA975C" transform="matrix(-1.0003 0 0 1 1200 26.0739)"/><path d="M124.685 265.068 108.209 266.776 108.209 282.94 124.685 281.726Z" fill="#BA975C" transform="matrix(-1.0003 0 0 1 1200 26.0739)"/><path d="M95.4875 268.089 79.8822 269.695 79.8822 285.037 95.4875 283.884Z" fill="#BA975C" transform="matrix(-1.0003 0 0 1 1200 26.0739)"/><path d="M67.1701 271.005 52.4285 272.53 52.4285 287.06 67.1701 285.968Z" fill="#BA975C" transform="matrix(-1.0003 0 0 1 1200 26.0739)"/><path d="M39.7164 273.859 25.8193 275.295 25.8193 289.031 39.7164 287.997Z" fill="#BA975C" transform="matrix(-1.0003 0 0 1 1200 26.0739)"/><path d="M13.0943 276.608 0 277.963 0 290.939 13.0943 289.975Z" fill="#BA975C" transform="matrix(-1.0003 0 0 1 1200 26.0739)"/><path d="M217.241 227.978 198.168 230.518 198.168 249.353 217.241 247.375Z" fill="#BA975C" transform="matrix(-1.0003 0 0 1 1200 26.0739)"/><path d="M185.452 232.207 167.342 234.615 167.342 252.545 185.452 250.67Z" fill="#BA975C" transform="matrix(-1.0003 0 0 1 1200 26.0739)"/><path d="M154.627 236.327 137.41 238.616 137.41 255.663 154.627 253.878Z" fill="#BA975C" transform="matrix(-1.0003 0 0 1 1200 26.0739)"/><path d="M124.685 240.295 108.209 242.482 108.209 258.668 124.685 256.96Z" fill="#BA975C" transform="matrix(-1.0003 0 0 1 1200 26.0739)"/><path d="M95.4875 244.177 79.8822 246.255 79.8822 261.597 95.4875 259.991Z" fill="#BA975C" transform="matrix(-1.0003 0 0 1 1200 26.0739)"/><path d="M67.1701 247.941 52.4285 249.906 52.4285 264.435 67.1701 262.91Z" fill="#BA975C" transform="matrix(-1.0003 0 0 1 1200 26.0739)"/><path d="M39.7164 251.591 25.8193 253.438 25.8193 267.187 39.7164 265.752Z" fill="#BA975C" transform="matrix(-1.0003 0 0 1 1200 26.0739)"/><path d="M13.0943 255.136 0 256.877 0 269.852 13.0943 268.497Z" fill="#BA975C" transform="matrix(-1.0003 0 0 1 1200 26.0739)"/><path d="M217.241 200.479 198.168 203.575 198.168 222.41 217.241 219.87Z" fill="#BA975C" transform="matrix(-1.0003 0 0 1 1200 26.0739)"/><path d="M185.452 205.646 167.342 208.587 167.342 226.507 185.452 224.099Z" fill="#BA975C" transform="matrix(-1.0003 0 0 1 1200 26.0739)"/><path d="M154.627 210.639 137.41 213.439 137.41 230.479 154.627 228.19Z" fill="#BA975C" transform="matrix(-1.0003 0 0 1 1200 26.0739)"/><path d="M124.685 215.52 108.209 218.197 108.209 234.374 124.685 232.188Z" fill="#BA975C" transform="matrix(-1.0003 0 0 1 1200 26.0739)"/><path d="M95.4875 220.272 79.8822 222.812 79.8822 238.154 95.4875 236.076Z" fill="#BA975C" transform="matrix(-1.0003 0 0 1 1200 26.0739)"/><path d="M67.1701 224.873 52.4285 227.268 52.4285 241.785 67.1701 239.82Z" fill="#BA975C" transform="matrix(-1.0003 0 0 1 1200 26.0739)"/><path d="M39.7164 229.336 25.8193 231.584 25.8193 245.317 39.7164 243.471Z" fill="#BA975C" transform="matrix(-1.0003 0 0 1 1200 26.0739)"/><path d="M13.0943 233.671 0 235.8 0 248.772 13.0943 247.029Z" fill="#BA975C" transform="matrix(-1.0003 0 0 1 1200 26.0739)"/><path d="M217.241 172.974 198.168 176.638 198.168 195.47 217.241 192.372Z" fill="#BA975C" transform="matrix(-1.0003 0 0 1 1200 26.0739)"/><path d="M185.452 179.085 167.342 182.569 167.342 200.479 185.452 197.538Z" fill="#BA975C" transform="matrix(-1.0003 0 0 1 1200 26.0739)"/><path d="M154.627 185.006 137.41 188.316 137.41 205.334 154.627 202.534Z" fill="#BA975C" transform="matrix(-1.0003 0 0 1 1200 26.0739)"/><path d="M124.685 190.757 108.209 193.942 108.209 210.106 124.685 207.428Z" fill="#BA975C" transform="matrix(-1.0003 0 0 1 1200 26.0739)"/><path d="M95.4875 196.363 79.8822 199.365 79.8822 214.698 95.4875 212.158Z" fill="#BA975C" transform="matrix(-1.0003 0 0 1 1200 26.0739)"/><path d="M67.1701 201.802 52.4285 204.631 52.4285 219.161 67.1701 216.765Z" fill="#BA975C" transform="matrix(-1.0003 0 0 1 1200 26.0739)"/><path d="M39.7164 207.081 25.8193 209.749 25.8193 223.483 39.7164 221.235Z" fill="#BA975C" transform="matrix(-1.0003 0 0 1 1200 26.0739)"/><path d="M13.0943 212.199 0 214.717 0 227.692 13.0943 225.563Z" fill="#BA975C" transform="matrix(-1.0003 0 0 1 1200 26.0739)"/><path d="M217.241 145.456 198.168 149.682 198.168 168.518 217.241 164.854Z" fill="#BA975C" transform="matrix(-1.0003 0 0 1 1200 26.0739)"/><path d="M185.452 152.521 167.342 156.534 167.342 174.464 185.452 170.984Z" fill="#BA975C" transform="matrix(-1.0003 0 0 1 1200 26.0739)"/><path d="M154.627 159.337 137.41 163.162 137.41 180.199 154.627 176.889Z" fill="#BA975C" transform="matrix(-1.0003 0 0 1 1200 26.0739)"/><path d="M124.685 165.981 108.209 169.632 108.209 185.809 124.685 182.636Z" fill="#BA975C" transform="matrix(-1.0003 0 0 1 1200 26.0739)"/><path d="M95.4875 172.454 79.8822 175.916 79.8822 191.248 95.4875 188.246Z" fill="#BA975C" transform="matrix(-1.0003 0 0 1 1200 26.0739)"/><path d="M67.1701 178.735 52.4285 182.007 52.4285 196.511 67.1701 193.682Z" fill="#BA975C" transform="matrix(-1.0003 0 0 1 1200 26.0739)"/><path d="M39.7164 184.826 25.8193 187.905 25.8193 201.648 39.7164 198.98Z" fill="#BA975C" transform="matrix(-1.0003 0 0 1 1200 26.0739)"/><path d="M13.0943 190.731 0 193.621 0 206.596 13.0943 204.079Z" fill="#BA975C" transform="matrix(-1.0003 0 0 1 1200 26.0739)"/><path d="M25.8193 362.691 25.8193 376.43 39.7164 377.05 39.7164 362.903Z" fill="#BA975C" transform="matrix(-1.0003 0 0 1 1200 26.0739)"/><path d="M79.8822 363.481 79.8822 378.826 95.4875 379.516 95.4875 363.712Z" fill="#BA975C" transform="matrix(-1.0003 0 0 1 1200 26.0739)"/><path d="M108.209 363.917 108.209 380.091 124.685 380.823 124.685 364.158Z" fill="#BA975C" transform="matrix(-1.0003 0 0 1 1200 26.0739)"/><path d="M167.342 364.765 167.342 382.698 185.452 383.501 185.452 365.038Z" fill="#BA975C" transform="matrix(-1.0003 0 0 1 1200 26.0739)"/><path d="M198.168 365.24 198.168 384.076 217.241 384.917 217.241 365.523Z" fill="#BA975C" transform="matrix(-1.0003 0 0 1 1200 26.0739)"/><path d="M0 383.388 0 396.364 13.0943 397.327 13.0943 383.963Z" fill="#BA975C" transform="matrix(-1.0003 0 0 1 1200 26.0739)"/><path d="M52.4285 385.729 52.4285 400.24 67.1701 401.335 67.1701 386.384Z" fill="#BA975C" transform="matrix(-1.0003 0 0 1 1200 26.0739)"/><path d="M137.41 389.489 137.41 406.507 154.627 407.792 154.627 390.254Z" fill="#BA975C" transform="matrix(-1.0003 0 0 1 1200 26.0739)"/><path d="M167.342 390.819 167.342 408.755 185.452 410.091 185.452 391.637Z" fill="#BA975C" transform="matrix(-1.0003 0 0 1 1200 26.0739)"/><path d="M198.168 392.183 198.168 411.003 217.241 412.409 217.241 393.021Z" fill="#BA975C" transform="matrix(-1.0003 0 0 1 1200 26.0739)"/><path d="M25.8193 406.382 25.8193 420.119 39.7164 421.554 39.7164 407.426Z" fill="#BA975C" transform="matrix(-1.0003 0 0 1 1200 26.0739)"/><path d="M79.8822 410.361 79.8822 425.693 95.4875 427.298 95.4875 411.504Z" fill="#BA975C" transform="matrix(-1.0003 0 0 1 1200 26.0739)"/><path d="M108.209 412.473 108.209 428.637 124.685 430.342 124.685 413.687Z" fill="#BA975C" transform="matrix(-1.0003 0 0 1 1200 26.0739)"/><path d="M198.168 419.123 198.168 437.949 217.241 439.927 217.241 420.53Z" fill="#BA975C" transform="matrix(-1.0003 0 0 1 1200 26.0739)"/><path d="M0 425.558 0 438.53 13.0943 440.277 13.0943 426.91Z" fill="#BA975C" transform="matrix(-1.0003 0 0 1 1200 26.0739)"/><path d="M79.8822 433.801 79.8822 449.146 95.4875 451.22 95.4875 435.419Z" fill="#BA975C" transform="matrix(-1.0003 0 0 1 1200 26.0739)"/><path d="M137.41 439.766 137.41 456.814 154.627 459.1 154.627 441.552Z" fill="#BA975C" transform="matrix(-1.0003 0 0 1 1200 26.0739)"/><path d="M167.342 442.865 167.342 460.798 185.452 463.206 185.452 444.743Z" fill="#BA975C" transform="matrix(-1.0003 0 0 1 1200 26.0739)"/><path d="M198.168 446.057 198.168 464.892 217.241 467.429 217.241 448.035Z" fill="#BA975C" transform="matrix(-1.0003 0 0 1 1200 26.0739)"/><path d="M25.8193 450.09 25.8193 463.826 39.7164 466.074 39.7164 451.926Z" fill="#BA975C" transform="matrix(-1.0003 0 0 1 1200 26.0739)"/><path d="M52.4285 453.622 52.4285 468.158 67.1701 470.556 67.1701 455.597Z" fill="#BA975C" transform="matrix(-1.0003 0 0 1 1200 26.0739)"/><path d="M108.209 461.049 108.209 477.222 124.685 479.903 124.685 463.235Z" fill="#BA975C" transform="matrix(-1.0003 0 0 1 1200 26.0739)"/><path d="M137.41 464.947 137.41 481.965 154.627 484.765 154.627 467.217Z" fill="#BA975C" transform="matrix(-1.0003 0 0 1 1200 26.0739)"/><path d="M79.8822 480.725 79.8822 496.058 95.4875 499.057 95.4875 483.249Z" fill="#BA975C" transform="matrix(-1.0003 0 0 1 1200 26.0739)"/><path d="M167.342 494.944 167.342 512.854 185.452 516.335 185.452 497.885Z" fill="#BA975C" transform="matrix(-1.0003 0 0 1 1200 26.0739)"/><path d="M0 488.814 0 501.786 13.0943 504.676 13.0943 491.322Z" fill="#BA975C" transform="matrix(-1.0003 0 0 1 1200 26.0739)"/><path d="M52.4285 498.896 52.4285 513.407 67.1701 516.679 67.1701 501.725Z" fill="#BA975C" transform="matrix(-1.0003 0 0 1 1200 26.0739)"/><path d="M108.209 509.605 108.209 525.778 124.685 529.432 124.685 512.79Z" fill="#BA975C" transform="matrix(-1.0003 0 0 1 1200 26.0739)"/><path d="M279.854 338.93 297.075 339.183 297.075 356.23 279.854 356.481Z" fill="#BA975C" transform="matrix(-1.0003 0 0 1 1200 26.0739)"/><path d="M309.797 339.373 326.272 339.613 326.272 355.8 309.797 356.041Z" fill="#BA975C" transform="matrix(-1.0003 0 0 1 1200 26.0739)"/><path d="M338.997 339.803 354.599 340.034 354.599 355.376 338.997 355.607Z" fill="#BA975C" transform="matrix(-1.0003 0 0 1 1200 26.0739)"/><path d="M394.768 340.628 408.665 340.837 408.665 354.573 394.768 354.785Z" fill="#BA975C" transform="matrix(-1.0003 0 0 1 1200 26.0739)"/><path d="M421.387 341.03 434.481 341.219 434.481 354.194 421.387 354.384Z" fill="#BA975C" transform="matrix(-1.0003 0 0 1 1200 26.0739)"/><path d="M217.241 117.958 236.327 122.752 236.327 141.578 217.25 137.352Z" fill="#BA975C" transform="matrix(-1.0003 0 0 1 1200 26.0739)"/><path d="M249.029 125.943 267.152 130.5 267.152 148.411 249.039 144.397Z" fill="#BA975C" transform="matrix(-1.0003 0 0 1 1200 26.0739)"/><path d="M279.854 133.691 297.075 138.017 297.075 155.054 279.854 151.236Z" fill="#BA975C" transform="matrix(-1.0003 0 0 1 1200 26.0739)"/><path d="M309.797 141.215 326.272 145.36 326.272 161.511 309.797 157.86Z" fill="#BA975C" transform="matrix(-1.0003 0 0 1 1200 26.0739)"/><path d="M338.997 148.552 354.599 152.476 354.599 167.808 338.997 164.346Z" fill="#BA975C" transform="matrix(-1.0003 0 0 1 1200 26.0739)"/><path d="M367.314 155.664 382.053 159.37 382.053 173.899 367.314 170.627Z" fill="#BA975C" transform="matrix(-1.0003 0 0 1 1200 26.0739)"/><path d="M394.768 162.558 408.665 166.052 408.665 179.814 394.768 176.734Z" fill="#BA975C" transform="matrix(-1.0003 0 0 1 1200 26.0739)"/><path d="M421.387 169.253 434.481 172.544 434.481 185.516 421.387 182.626Z" fill="#BA975C" transform="matrix(-1.0003 0 0 1 1200 26.0739)"/><path d="M326.272 533.886 326.272 550.037 309.797 554.211 309.797 537.556Z" fill="#BA975C" transform="matrix(-1.0003 0 0 1 1200 26.0739)"/><path d="M217.241 310.5 236.327 311.347 236.327 330.18 217.25 329.9Z" fill="#BA975C" transform="matrix(-1.0003 0 0 1 1200 26.0739)"/><path d="M249.029 311.909 267.142 312.712 267.142 330.642 249.029 330.372Z" fill="#BA975C" transform="matrix(-1.0003 0 0 1 1200 26.0739)"/><path d="M279.854 313.274 297.075 314.032 297.075 331.072 279.854 330.819Z" fill="#BA975C" transform="matrix(-1.0003 0 0 1 1200 26.0739)"/><path d="M309.797 314.597 326.272 315.329 326.272 331.506 309.797 331.265Z" fill="#BA975C" transform="matrix(-1.0003 0 0 1 1200 26.0739)"/><path d="M338.997 315.891 354.599 316.585 354.599 331.926 338.997 331.695Z" fill="#BA975C" transform="matrix(-1.0003 0 0 1 1200 26.0739)"/><path d="M367.314 317.146 382.053 317.789 382.053 332.334 367.314 332.116Z" fill="#BA975C" transform="matrix(-1.0003 0 0 1 1200 26.0739)"/><path d="M394.768 318.37 408.665 318.993 408.665 332.729 394.768 332.52Z" fill="#BA975C" transform="matrix(-1.0003 0 0 1 1200 26.0739)"/><path d="M421.387 319.555 434.481 320.136 434.481 333.111 421.387 332.922Z" fill="#BA975C" transform="matrix(-1.0003 0 0 1 1200 26.0739)"/><path d="M217.241 283.001 236.327 284.404 236.327 303.24 217.25 302.395Z" fill="#BA975C" transform="matrix(-1.0003 0 0 1 1200 26.0739)"/><path d="M249.029 285.348 267.152 286.684 267.152 304.604 249.039 303.802Z" fill="#BA975C" transform="matrix(-1.0003 0 0 1 1200 26.0739)"/><path d="M279.854 287.625 297.075 288.909 297.075 305.927 279.854 305.166Z" fill="#BA975C" transform="matrix(-1.0003 0 0 1 1200 26.0739)"/><path d="M309.797 289.844 326.272 291.057 326.272 307.221 309.797 306.489Z" fill="#BA975C" transform="matrix(-1.0003 0 0 1 1200 26.0739)"/><path d="M338.997 292.001 354.599 293.154 354.599 308.477 338.997 307.783Z" fill="#BA975C" transform="matrix(-1.0003 0 0 1 1200 26.0739)"/><path d="M367.314 294.089 382.053 295.18 382.053 309.691 367.314 309.048Z" fill="#BA975C" transform="matrix(-1.0003 0 0 1 1200 26.0739)"/><path d="M394.768 296.115 408.665 297.149 408.665 310.885 394.768 310.262Z" fill="#BA975C" transform="matrix(-1.0003 0 0 1 1200 26.0739)"/><path d="M421.387 298.083 434.481 299.046 434.481 312.018 421.387 311.463Z" fill="#BA975C" transform="matrix(-1.0003 0 0 1 1200 26.0739)"/><path d="M217.241 255.486 236.327 257.464 236.327 276.287 217.25 274.884Z" fill="#BA975C" transform="matrix(-1.0003 0 0 1 1200 26.0739)"/><path d="M249.029 258.778 267.152 260.653 267.152 278.564 249.039 277.231Z" fill="#BA975C" transform="matrix(-1.0003 0 0 1 1200 26.0739)"/><path d="M279.854 261.969 297.075 263.755 297.075 280.773 279.854 279.488Z" fill="#BA975C" transform="matrix(-1.0003 0 0 1 1200 26.0739)"/><path d="M309.797 265.068 326.272 266.776 326.272 282.94 309.797 281.726Z" fill="#BA975C" transform="matrix(-1.0003 0 0 1 1200 26.0739)"/><path d="M338.997 268.089 354.599 269.695 354.599 285.037 338.997 283.884Z" fill="#BA975C" transform="matrix(-1.0003 0 0 1 1200 26.0739)"/><path d="M367.314 271.005 382.053 272.53 382.053 287.06 367.314 285.968Z" fill="#BA975C" transform="matrix(-1.0003 0 0 1 1200 26.0739)"/><path d="M394.768 273.859 408.665 275.295 408.665 289.031 394.768 287.997Z" fill="#BA975C" transform="matrix(-1.0003 0 0 1 1200 26.0739)"/><path d="M421.387 276.608 434.481 277.963 434.481 290.939 421.387 289.975Z" fill="#BA975C" transform="matrix(-1.0003 0 0 1 1200 26.0739)"/><path d="M217.241 227.978 236.327 230.521 236.327 249.357 217.25 247.379Z" fill="#BA975C" transform="matrix(-1.0003 0 0 1 1200 26.0739)"/><path d="M249.029 232.207 267.142 234.615 267.142 252.545 249.029 250.67Z" fill="#BA975C" transform="matrix(-1.0003 0 0 1 1200 26.0739)"/><path d="M279.854 236.327 297.075 238.616 297.075 255.663 279.854 253.878Z" fill="#BA975C" transform="matrix(-1.0003 0 0 1 1200 26.0739)"/><path d="M309.797 240.295 326.272 242.482 326.272 258.668 309.797 256.96Z" fill="#BA975C" transform="matrix(-1.0003 0 0 1 1200 26.0739)"/><path d="M338.997 244.177 354.599 246.255 354.599 261.597 338.997 259.991Z" fill="#BA975C" transform="matrix(-1.0003 0 0 1 1200 26.0739)"/><path d="M367.314 247.941 382.053 249.906 382.053 264.435 367.314 262.91Z" fill="#BA975C" transform="matrix(-1.0003 0 0 1 1200 26.0739)"/><path d="M394.768 251.591 408.665 253.438 408.665 267.187 394.768 265.752Z" fill="#BA975C" transform="matrix(-1.0003 0 0 1 1200 26.0739)"/><path d="M421.387 255.136 434.481 256.88 434.481 269.855 421.387 268.5Z" fill="#BA975C" transform="matrix(-1.0003 0 0 1 1200 26.0739)"/><path d="M217.241 200.479 236.327 203.575 236.327 222.41 217.25 219.87Z" fill="#BA975C" transform="matrix(-1.0003 0 0 1 1200 26.0739)"/><path d="M249.029 205.646 267.152 208.587 267.152 226.507 249.039 224.099Z" fill="#BA975C" transform="matrix(-1.0003 0 0 1 1200 26.0739)"/><path d="M279.854 210.639 297.075 213.439 297.075 230.479 279.854 228.19Z" fill="#BA975C" transform="matrix(-1.0003 0 0 1 1200 26.0739)"/><path d="M309.797 215.52 326.272 218.197 326.272 234.374 309.797 232.188Z" fill="#BA975C" transform="matrix(-1.0003 0 0 1 1200 26.0739)"/><path d="M338.997 220.272 354.599 222.812 354.599 238.154 338.997 236.076Z" fill="#BA975C" transform="matrix(-1.0003 0 0 1 1200 26.0739)"/><path d="M367.314 224.873 382.053 227.268 382.053 241.785 367.314 239.82Z" fill="#BA975C" transform="matrix(-1.0003 0 0 1 1200 26.0739)"/><path d="M394.768 229.336 408.665 231.584 408.665 245.317 394.768 243.471Z" fill="#BA975C" transform="matrix(-1.0003 0 0 1 1200 26.0739)"/><path d="M421.387 233.671 434.481 235.8 434.481 248.772 421.387 247.029Z" fill="#BA975C" transform="matrix(-1.0003 0 0 1 1200 26.0739)"/><path d="M217.241 172.974 236.327 176.638 236.327 195.47 217.25 192.372Z" fill="#BA975C" transform="matrix(-1.0003 0 0 1 1200 26.0739)"/><path d="M249.029 179.085 267.152 182.569 267.152 200.479 249.039 197.538Z" fill="#BA975C" transform="matrix(-1.0003 0 0 1 1200 26.0739)"/><path d="M279.854 185.006 297.075 188.316 297.075 205.334 279.854 202.534Z" fill="#BA975C" transform="matrix(-1.0003 0 0 1 1200 26.0739)"/><path d="M309.797 190.757 326.272 193.926 326.272 210.09 309.797 207.428Z" fill="#BA975C" transform="matrix(-1.0003 0 0 1 1200 26.0739)"/><path d="M338.997 196.363 354.599 199.365 354.599 214.698 338.997 212.158Z" fill="#BA975C" transform="matrix(-1.0003 0 0 1 1200 26.0739)"/><path d="M367.314 201.802 382.053 204.631 382.053 219.161 367.314 216.765Z" fill="#BA975C" transform="matrix(-1.0003 0 0 1 1200 26.0739)"/><path d="M394.768 207.081 408.665 209.749 408.665 223.483 394.768 221.235Z" fill="#BA975C" transform="matrix(-1.0003 0 0 1 1200 26.0739)"/><path d="M421.387 212.199 434.481 214.717 434.481 227.692 421.387 225.563Z" fill="#BA975C" transform="matrix(-1.0003 0 0 1 1200 26.0739)"/><path d="M217.241 145.456 236.327 149.685 236.327 168.521 217.25 164.857Z" fill="#BA975C" transform="matrix(-1.0003 0 0 1 1200 26.0739)"/><path d="M249.029 152.521 267.152 156.518 267.152 174.448 249.039 170.968Z" fill="#BA975C" transform="matrix(-1.0003 0 0 1 1200 26.0739)"/><path d="M279.854 159.337 297.075 163.162 297.075 180.199 279.854 176.889Z" fill="#BA975C" transform="matrix(-1.0003 0 0 1 1200 26.0739)"/><path d="M309.797 165.981 326.272 169.632 326.272 185.809 309.797 182.636Z" fill="#BA975C" transform="matrix(-1.0003 0 0 1 1200 26.0739)"/><path d="M338.997 172.454 354.599 175.916 354.599 191.248 338.997 188.246Z" fill="#BA975C" transform="matrix(-1.0003 0 0 1 1200 26.0739)"/><path d="M367.314 178.735 382.053 182.007 382.053 196.511 367.314 193.682Z" fill="#BA975C" transform="matrix(-1.0003 0 0 1 1200 26.0739)"/><path d="M394.768 184.826 408.665 187.905 408.665 201.648 394.768 198.98Z" fill="#BA975C" transform="matrix(-1.0003 0 0 1 1200 26.0739)"/><path d="M421.387 190.731 434.481 193.621 434.481 206.596 421.387 204.079Z" fill="#BA975C" transform="matrix(-1.0003 0 0 1 1200 26.0739)"/><path d="M408.665 362.691 408.665 376.43 394.768 377.05 394.768 362.903Z" fill="#BA975C" transform="matrix(-1.0003 0 0 1 1200 26.0739)"/><path d="M382.053 363.082 382.053 377.609 367.314 378.251 367.314 363.278Z" fill="#BA975C" transform="matrix(-1.0003 0 0 1 1200 26.0739)"/><path d="M354.599 363.481 354.599 378.826 338.997 379.516 338.997 363.712Z" fill="#BA975C" transform="matrix(-1.0003 0 0 1 1200 26.0739)"/><path d="M297.075 364.347 297.075 381.385 279.854 382.149 279.854 364.598Z" fill="#BA975C" transform="matrix(-1.0003 0 0 1 1200 26.0739)"/><path d="M267.152 364.765 267.152 382.698 249.039 383.501 249.039 365.038Z" fill="#BA975C" transform="matrix(-1.0003 0 0 1 1200 26.0739)"/><path d="M236.327 365.24 236.327 384.076 217.25 384.917 217.25 365.523Z" fill="#BA975C" transform="matrix(-1.0003 0 0 1 1200 26.0739)"/><path d="M434.481 383.388 434.481 396.364 421.387 397.327 421.387 383.963Z" fill="#BA975C" transform="matrix(-1.0003 0 0 1 1200 26.0739)"/><path d="M382.053 385.729 382.053 400.24 367.314 401.335 367.314 386.384Z" fill="#BA975C" transform="matrix(-1.0003 0 0 1 1200 26.0739)"/><path d="M354.599 386.946 354.599 402.266 338.997 403.422 338.997 387.637Z" fill="#BA975C" transform="matrix(-1.0003 0 0 1 1200 26.0739)"/><path d="M326.272 388.205 326.272 404.372 309.797 405.586 309.797 388.937Z" fill="#BA975C" transform="matrix(-1.0003 0 0 1 1200 26.0739)"/><path d="M297.075 389.489 297.075 406.507 279.854 407.792 279.854 390.254Z" fill="#BA975C" transform="matrix(-1.0003 0 0 1 1200 26.0739)"/><path d="M236.327 392.183 236.327 411.003 217.25 412.409 217.25 393.021Z" fill="#BA975C" transform="matrix(-1.0003 0 0 1 1200 26.0739)"/><path d="M434.481 404.475 434.481 417.45 421.387 418.802 421.387 405.448Z" fill="#BA975C" transform="matrix(-1.0003 0 0 1 1200 26.0739)"/><path d="M408.665 406.382 408.665 420.119 394.768 421.554 394.768 407.426Z" fill="#BA975C" transform="matrix(-1.0003 0 0 1 1200 26.0739)"/><path d="M354.599 410.361 354.599 425.693 338.997 427.298 338.997 411.504Z" fill="#BA975C" transform="matrix(-1.0003 0 0 1 1200 26.0739)"/><path d="M326.272 412.473 326.272 428.637 309.797 430.342 309.797 413.687Z" fill="#BA975C" transform="matrix(-1.0003 0 0 1 1200 26.0739)"/><path d="M267.152 416.847 267.152 434.764 249.039 436.642 249.039 418.189Z" fill="#BA975C" transform="matrix(-1.0003 0 0 1 1200 26.0739)"/><path d="M382.053 430.975 382.053 445.504 367.314 447.473 367.314 432.516Z" fill="#BA975C" transform="matrix(-1.0003 0 0 1 1200 26.0739)"/><path d="M354.599 433.801 354.599 449.146 338.997 451.22 338.997 435.419Z" fill="#BA975C" transform="matrix(-1.0003 0 0 1 1200 26.0739)"/><path d="M297.075 439.766 297.075 456.814 279.854 459.1 279.854 441.552Z" fill="#BA975C" transform="matrix(-1.0003 0 0 1 1200 26.0739)"/><path d="M236.327 446.057 236.327 464.892 217.25 467.429 217.25 448.035Z" fill="#BA975C" transform="matrix(-1.0003 0 0 1 1200 26.0739)"/><path d="M408.665 450.09 408.665 463.826 394.768 466.074 394.768 451.926Z" fill="#BA975C" transform="matrix(-1.0003 0 0 1 1200 26.0739)"/><path d="M267.152 468.916 267.152 486.836 249.039 489.777 249.039 471.324Z" fill="#BA975C" transform="matrix(-1.0003 0 0 1 1200 26.0739)"/><path d="M434.481 467.731 434.481 480.706 421.387 483.224 421.387 469.856Z" fill="#BA975C" transform="matrix(-1.0003 0 0 1 1200 26.0739)"/><path d="M382.053 476.259 382.053 490.789 367.314 493.617 367.314 478.658Z" fill="#BA975C" transform="matrix(-1.0003 0 0 1 1200 26.0739)"/><path d="M326.272 485.33 326.272 501.497 309.797 504.666 309.797 488.011Z" fill="#BA975C" transform="matrix(-1.0003 0 0 1 1200 26.0739)"/><path d="M408.665 493.778 408.665 507.505 394.768 510.587 394.768 496.459Z" fill="#BA975C" transform="matrix(-1.0003 0 0 1 1200 26.0739)"/><path d="M354.599 504.165 354.599 519.498 338.997 522.959 338.997 507.165Z" fill="#BA975C" transform="matrix(-1.0003 0 0 1 1200 26.0739)"/><path d="M267.152 520.962 267.152 538.892 249.039 542.906 249.039 524.443Z" fill="#BA975C" transform="matrix(-1.0003 0 0 1 1200 26.0739)"/><path d="M586.963 263.986 567.887 264.323 567.887 286.918 586.963 287.256 586.963 263.986Z" fill="#BA975C" transform="matrix(-1.0003 0 0 1 1200 26.0739)"/><path d="M555.175 264.551 537.062 264.872 537.062 286.36 555.175 286.681Z" fill="#BA975C" transform="matrix(-1.0003 0 0 1 1200 26.0739)"/><path d="M524.35 265.094 507.132 265.395 507.132 285.846 524.35 286.148 524.35 265.094Z" fill="#BA975C" transform="matrix(-1.0003 0 0 1 1200 26.0739)"/><path d="M465.204 266.14 449.602 266.416 449.602 284.812 465.204 285.091 465.204 266.147Z" fill="#BA975C" transform="matrix(-1.0003 0 0 1 1200 26.0739)"/><path d="M586.963 0 567.887 5.75404 567.887 28.3367 586.963 23.2698 586.963 0Z" fill="#BA975C" transform="matrix(-1.0003 0 0 1 1200 26.0739)"/><path d="M555.175 9.5815 537.062 15.0401 537.062 36.5279 555.175 31.7114 555.175 9.5815Z" fill="#BA975C" transform="matrix(-1.0003 0 0 1 1200 26.0739)"/><path d="M524.35 18.874 507.132 24.0629 507.132 44.5039 524.35 39.9154Z" fill="#BA975C" transform="matrix(-1.0003 0 0 1 1200 26.0739)"/><path d="M494.404 27.9032 477.929 32.8738 477.929 52.268 494.404 47.885Z" fill="#BA975C" transform="matrix(-1.0003 0 0 1 1200 26.0739)"/><path d="M465.204 36.7013 449.602 41.4214 449.602 59.817 465.204 55.662Z" fill="#BA975C" transform="matrix(-1.0003 0 0 1 1200 26.0739)"/><path d="M449.602 491.437 449.602 509.83 465.204 514.537 465.204 495.592 449.602 491.44Z" fill="#BA975C" transform="matrix(-1.0003 0 0 1 1200 26.0739)"/><path d="M537.059 514.717 537.059 536.201 555.172 541.66 555.172 519.533Z" fill="#BA975C" transform="matrix(-1.0003 0 0 1 1200 26.0739)"/><path d="M586.963 230.99 567.887 232.001 567.887 254.597 586.963 254.276Z" fill="#BA975C" transform="matrix(-1.0003 0 0 1 1200 26.0739)"/><path d="M524.35 234.313 507.132 235.228 507.132 255.666 524.35 255.368 524.35 234.313Z" fill="#BA975C" transform="matrix(-1.0003 0 0 1 1200 26.0739)"/><path d="M494.404 235.903 477.929 236.779 477.929 256.186 494.404 255.897Z" fill="#BA975C" transform="matrix(-1.0003 0 0 1 1200 26.0739)"/><path d="M465.204 237.454 449.602 238.285 449.602 256.69 465.204 256.414Z" fill="#BA975C" transform="matrix(-1.0003 0 0 1 1200 26.0739)"/><path d="M586.963 197.994 567.887 199.68 567.887 222.275 586.963 221.264Z" fill="#BA975C" transform="matrix(-1.0003 0 0 1 1200 26.0739)"/><path d="M555.175 200.813 537.062 202.419 537.062 223.932 555.175 222.969Z" fill="#BA975C" transform="matrix(-1.0003 0 0 1 1200 26.0739)"/><path d="M524.35 203.546 507.132 205.074 507.132 225.502 524.35 224.587Z" fill="#BA975C" transform="matrix(-1.0003 0 0 1 1200 26.0739)"/><path d="M494.404 206.205 477.929 207.662 477.929 227.053 494.404 226.177Z" fill="#BA975C" transform="matrix(-1.0003 0 0 1 1200 26.0739)"/><path d="M465.204 208.793 449.602 210.177 449.602 228.559 465.204 227.728 465.204 208.783Z" fill="#BA975C" transform="matrix(-1.0003 0 0 1 1200 26.0739)"/><path d="M586.963 164.989 567.887 167.358 567.887 189.941 586.963 188.255Z" fill="#BA975C" transform="matrix(-1.0003 0 0 1 1200 26.0739)"/><path d="M555.175 168.935 537.062 171.183 537.062 192.67 555.175 191.065Z" fill="#BA975C" transform="matrix(-1.0003 0 0 1 1200 26.0739)"/><path d="M524.35 172.766 507.132 174.907 507.132 195.335 524.35 193.807Z" fill="#BA975C" transform="matrix(-1.0003 0 0 1 1200 26.0739)"/><path d="M465.204 180.106 449.602 182.032 449.602 200.425 465.204 199.041Z" fill="#BA975C" transform="matrix(-1.0003 0 0 1 1200 26.0739)"/><path d="M586.963 131.993 567.887 135.037 567.887 157.632 586.963 155.263 586.963 131.993Z" fill="#BA975C" transform="matrix(-1.0003 0 0 1 1200 26.0739)"/><path d="M555.175 137.06 537.062 139.95 537.062 161.463 555.175 159.215Z" fill="#BA975C" transform="matrix(-1.0003 0 0 1 1200 26.0739)"/><path d="M524.35 141.985 507.132 144.728 507.132 165.181 524.35 163.036 524.35 141.985Z" fill="#BA975C" transform="matrix(-1.0003 0 0 1 1200 26.0739)"/><path d="M494.404 146.763 477.929 149.387 477.929 168.803 494.404 166.758 494.404 146.763Z" fill="#BA975C" transform="matrix(-1.0003 0 0 1 1200 26.0739)"/><path d="M465.204 151.422 449.602 153.914 449.602 172.319 465.204 170.393Z" fill="#BA975C" transform="matrix(-1.0003 0 0 1 1200 26.0739)"/><path d="M586.963 98.9971 567.887 102.719 567.887 125.311 586.963 122.267Z" fill="#BA975C" transform="matrix(-1.0003 0 0 1 1200 26.0739)"/><path d="M555.175 105.197 537.062 108.729 537.062 130.243 555.175 127.353Z" fill="#BA975C" transform="matrix(-1.0003 0 0 1 1200 26.0739)"/><path d="M524.35 111.205 507.132 114.564 507.132 135.002 524.35 132.256Z" fill="#BA975C" transform="matrix(-1.0003 0 0 1 1200 26.0739)"/><path d="M494.404 117.043 477.929 120.254 477.929 139.677 494.404 137.053 494.404 117.043Z" fill="#BA975C" transform="matrix(-1.0003 0 0 1 1200 26.0739)"/><path d="M465.204 122.736 449.602 125.783 449.602 144.188 465.204 141.696 465.204 122.736Z" fill="#BA975C" transform="matrix(-1.0003 0 0 1 1200 26.0739)"/><path d="M586.963 66.0013 567.887 70.3971 567.887 92.9894 586.963 89.2647Z" fill="#BA975C" transform="matrix(-1.0003 0 0 1 1200 26.0739)"/><path d="M555.175 73.3319 537.062 77.5061 537.062 98.9939 555.175 95.4618Z" fill="#BA975C" transform="matrix(-1.0003 0 0 1 1200 26.0739)"/><path d="M524.35 80.4345 507.132 84.4065 507.132 104.835 524.35 101.466Z" fill="#BA975C" transform="matrix(-1.0003 0 0 1 1200 26.0739)"/><path d="M494.404 87.3381 477.929 91.1431 477.929 110.537 494.404 107.326Z" fill="#BA975C" transform="matrix(-1.0003 0 0 1 1200 26.0739)"/><path d="M465.204 94.0618 449.602 97.6613 449.602 116.054 465.204 113.026Z" fill="#BA975C" transform="matrix(-1.0003 0 0 1 1200 26.0739)"/><path d="M586.963 32.9958 567.887 38.0627 567.887 60.6582 586.963 56.2624Z" fill="#BA975C" transform="matrix(-1.0003 0 0 1 1200 26.0739)"/><path d="M555.175 41.4471 537.062 46.2635 537.062 67.7769 555.175 63.6027Z" fill="#BA975C" transform="matrix(-1.0003 0 0 1 1200 26.0739)"/><path d="M524.35 49.6446 507.132 54.2299 507.132 74.6708 524.35 70.6957Z" fill="#BA975C" transform="matrix(-1.0003 0 0 1 1200 26.0739)"/><path d="M494.404 57.611 477.929 61.994 477.929 81.3978 494.404 77.596Z" fill="#BA975C" transform="matrix(-1.0003 0 0 1 1200 26.0739)"/><path d="M465.204 65.3751 449.602 69.5301 449.602 87.9225 465.204 84.323Z" fill="#BA975C" transform="matrix(-1.0003 0 0 1 1200 26.0739)"/><path d="M477.929 295.068 477.929 314.472 494.404 315.351 494.404 295.357Z" fill="#BA975C" transform="matrix(-1.0003 0 0 1 1200 26.0739)"/><path d="M537.059 296.102 537.059 317.615 555.172 318.578 555.172 296.423Z" fill="#BA975C" transform="matrix(-1.0003 0 0 1 1200 26.0739)"/><path d="M449.602 322.701 449.602 341.084 465.204 342.468 465.204 323.523 449.602 322.692Z" fill="#BA975C" transform="matrix(-1.0003 0 0 1 1200 26.0739)"/><path d="M477.929 324.198 477.929 343.592 494.404 345.046 494.404 325.077Z" fill="#BA975C" transform="matrix(-1.0003 0 0 1 1200 26.0739)"/><path d="M507.129 325.752 507.129 346.18 524.346 347.708 524.346 326.667Z" fill="#BA975C" transform="matrix(-1.0003 0 0 1 1200 26.0739)"/><path d="M537.059 327.341 537.059 348.855 555.172 350.46 555.172 328.305Z" fill="#BA975C" transform="matrix(-1.0003 0 0 1 1200 26.0739)"/><path d="M567.884 328.976 567.884 351.571 586.96 353.257 586.96 329.987 567.884 328.976Z" fill="#BA975C" transform="matrix(-1.0003 0 0 1 1200 26.0739)"/><path d="M449.602 350.8 449.602 369.196 465.204 371.123 465.204 352.178Z" fill="#BA975C" transform="matrix(-1.0003 0 0 1 1200 26.0739)"/><path d="M507.129 355.906 507.129 376.324 524.346 378.466 524.346 357.425 507.129 355.896Z" fill="#BA975C" transform="matrix(-1.0003 0 0 1 1200 26.0739)"/><path d="M567.884 361.297 567.884 383.88 586.96 386.253 586.96 362.983Z" fill="#BA975C" transform="matrix(-1.0003 0 0 1 1200 26.0739)"/><path d="M477.929 382.425 477.929 401.842 494.404 404.468 494.404 384.474 477.929 382.425Z" fill="#BA975C" transform="matrix(-1.0003 0 0 1 1200 26.0739)"/><path d="M537.059 389.778 537.059 411.292 555.172 414.182 555.172 392.026Z" fill="#BA975C" transform="matrix(-1.0003 0 0 1 1200 26.0739)"/><path d="M477.929 411.59 477.929 430.997 494.404 434.208 494.404 414.214 477.929 411.587Z" fill="#BA975C" transform="matrix(-1.0003 0 0 1 1200 26.0739)"/><path d="M507.129 416.249 507.129 436.69 524.346 440.049 524.346 418.995 507.129 416.249Z" fill="#BA975C" transform="matrix(-1.0003 0 0 1 1200 26.0739)"/><path d="M449.602 435.197 449.602 453.59 465.204 457.189 465.204 438.245Z" fill="#BA975C" transform="matrix(-1.0003 0 0 1 1200 26.0739)"/><path d="M507.129 446.416 507.129 466.845 524.346 470.816 524.346 449.775Z" fill="#BA975C" transform="matrix(-1.0003 0 0 1 1200 26.0739)"/><path d="M537.059 452.254 537.059 473.742 555.172 477.916 555.172 455.78 537.059 452.247Z" fill="#BA975C" transform="matrix(-1.0003 0 0 1 1200 26.0739)"/><path d="M477.929 469.84 477.929 489.247 494.404 493.627 494.404 473.645 477.929 469.84Z" fill="#BA975C" transform="matrix(-1.0003 0 0 1 1200 26.0739)"/><path d="M586.963 263.986 606.04 264.323 606.04 286.918 586.963 287.256 586.963 263.986Z" fill="#BA975C" transform="matrix(-1.0003 0 0 1 1200 26.0739)"/><path d="M618.752 264.551 636.865 264.872 636.865 286.36 618.752 286.681Z" fill="#BA975C" transform="matrix(-1.0003 0 0 1 1200 26.0739)"/><path d="M649.577 265.094 666.797 265.395 666.797 285.846 649.577 286.148 649.577 265.094Z" fill="#BA975C" transform="matrix(-1.0003 0 0 1 1200 26.0739)"/><path d="M679.516 265.623 695.991 265.912 695.991 285.329 679.516 285.618Z" fill="#BA975C" transform="matrix(-1.0003 0 0 1 1200 26.0739)"/><path d="M708.716 266.14 724.318 266.416 724.318 284.812 708.716 285.091 708.716 266.147Z" fill="#BA975C" transform="matrix(-1.0003 0 0 1 1200 26.0739)"/><path d="M586.963 0 606.04 5.75404 606.04 28.3367 586.963 23.2698 586.963 0Z" fill="#BA975C" transform="matrix(-1.0003 0 0 1 1200 26.0739)"/><path d="M618.752 9.5815 636.865 15.0401 636.865 36.5279 618.752 31.7114 618.752 9.5815Z" fill="#BA975C" transform="matrix(-1.0003 0 0 1 1200 26.0739)"/><path d="M649.577 18.874 666.797 24.0629 666.797 44.5039 649.577 39.9154Z" fill="#BA975C" transform="matrix(-1.0003 0 0 1 1200 26.0739)"/><path d="M679.516 27.9032 695.991 32.8738 695.991 52.268 679.516 47.885Z" fill="#BA975C" transform="matrix(-1.0003 0 0 1 1200 26.0739)"/><path d="M708.716 36.7013 724.318 41.4214 724.318 59.817 708.716 55.662Z" fill="#BA975C" transform="matrix(-1.0003 0 0 1 1200 26.0739)"/><path d="M695.991 498.983 695.991 518.374 679.516 523.348 679.516 503.363Z" fill="#BA975C" transform="matrix(-1.0003 0 0 1 1200 26.0739)"/><path d="M586.963 230.99 606.04 232.001 606.04 254.597 586.963 254.276Z" fill="#BA975C" transform="matrix(-1.0003 0 0 1 1200 26.0739)"/><path d="M649.577 234.313 666.797 235.228 666.797 255.666 649.577 255.368 649.577 234.313Z" fill="#BA975C" transform="matrix(-1.0003 0 0 1 1200 26.0739)"/><path d="M679.516 235.903 695.991 236.779 695.991 256.186 679.516 255.897Z" fill="#BA975C" transform="matrix(-1.0003 0 0 1 1200 26.0739)"/><path d="M586.963 197.994 606.04 199.68 606.04 222.275 586.963 221.264Z" fill="#BA975C" transform="matrix(-1.0003 0 0 1 1200 26.0739)"/><path d="M618.752 200.813 636.865 202.419 636.865 223.932 618.752 222.969Z" fill="#BA975C" transform="matrix(-1.0003 0 0 1 1200 26.0739)"/><path d="M649.577 203.546 666.797 205.074 666.797 225.502 649.577 224.587Z" fill="#BA975C" transform="matrix(-1.0003 0 0 1 1200 26.0739)"/><path d="M679.516 206.205 695.991 207.662 695.991 227.053 679.516 226.177Z" fill="#BA975C" transform="matrix(-1.0003 0 0 1 1200 26.0739)"/><path d="M708.716 208.793 724.318 210.177 724.318 228.559 708.716 227.728 708.716 208.783Z" fill="#BA975C" transform="matrix(-1.0003 0 0 1 1200 26.0739)"/><path d="M586.963 164.989 606.04 167.358 606.04 189.941 586.963 188.255Z" fill="#BA975C" transform="matrix(-1.0003 0 0 1 1200 26.0739)"/><path d="M618.752 168.935 636.865 171.183 636.865 192.67 618.752 191.065Z" fill="#BA975C" transform="matrix(-1.0003 0 0 1 1200 26.0739)"/><path d="M649.577 172.766 666.797 174.907 666.797 195.335 649.577 193.807Z" fill="#BA975C" transform="matrix(-1.0003 0 0 1 1200 26.0739)"/><path d="M708.716 180.106 724.318 182.032 724.318 200.425 708.716 199.041Z" fill="#BA975C" transform="matrix(-1.0003 0 0 1 1200 26.0739)"/><path d="M586.963 131.993 606.04 135.037 606.04 157.632 586.963 155.263 586.963 131.993Z" fill="#BA975C" transform="matrix(-1.0003 0 0 1 1200 26.0739)"/><path d="M618.752 137.06 636.865 139.95 636.865 161.463 618.752 159.215Z" fill="#BA975C" transform="matrix(-1.0003 0 0 1 1200 26.0739)"/><path d="M649.577 141.985 666.797 144.728 666.797 165.181 649.577 163.036 649.577 141.985Z" fill="#BA975C" transform="matrix(-1.0003 0 0 1 1200 26.0739)"/><path d="M679.516 146.763 695.991 149.387 695.991 168.803 679.516 166.758 679.516 146.763Z" fill="#BA975C" transform="matrix(-1.0003 0 0 1 1200 26.0739)"/><path d="M708.716 151.422 724.318 153.914 724.318 172.319 708.716 170.393Z" fill="#BA975C" transform="matrix(-1.0003 0 0 1 1200 26.0739)"/><path d="M586.963 98.9971 606.04 102.719 606.04 125.311 586.963 122.267Z" fill="#BA975C" transform="matrix(-1.0003 0 0 1 1200 26.0739)"/><path d="M618.752 105.197 636.865 108.729 636.865 130.243 618.752 127.353Z" fill="#BA975C" transform="matrix(-1.0003 0 0 1 1200 26.0739)"/><path d="M649.577 111.205 666.797 114.564 666.797 135.002 649.577 132.256Z" fill="#BA975C" transform="matrix(-1.0003 0 0 1 1200 26.0739)"/><path d="M679.516 117.043 695.991 120.254 695.991 139.677 679.516 137.053 679.516 117.043Z" fill="#BA975C" transform="matrix(-1.0003 0 0 1 1200 26.0739)"/><path d="M708.716 122.736 724.318 125.783 724.318 144.188 708.716 141.696 708.716 122.736Z" fill="#BA975C" transform="matrix(-1.0003 0 0 1 1200 26.0739)"/><path d="M586.963 66.0013 606.04 70.3971 606.04 92.9894 586.963 89.2647Z" fill="#BA975C" transform="matrix(-1.0003 0 0 1 1200 26.0739)"/><path d="M618.752 73.3319 636.865 77.5061 636.865 98.9939 618.752 95.4618Z" fill="#BA975C" transform="matrix(-1.0003 0 0 1 1200 26.0739)"/><path d="M649.577 80.4345 666.797 84.4065 666.797 104.835 649.577 101.466Z" fill="#BA975C" transform="matrix(-1.0003 0 0 1 1200 26.0739)"/><path d="M679.516 87.3381 695.991 91.1431 695.991 110.537 679.516 107.326Z" fill="#BA975C" transform="matrix(-1.0003 0 0 1 1200 26.0739)"/><path d="M708.716 94.0618 724.318 97.6613 724.318 116.054 708.716 113.026Z" fill="#BA975C" transform="matrix(-1.0003 0 0 1 1200 26.0739)"/><path d="M586.963 32.9958 606.04 38.0627 606.04 60.6582 586.963 56.2624Z" fill="#BA975C" transform="matrix(-1.0003 0 0 1 1200 26.0739)"/><path d="M618.752 41.4471 636.865 46.2635 636.865 67.7769 618.752 63.6027Z" fill="#BA975C" transform="matrix(-1.0003 0 0 1 1200 26.0739)"/><path d="M649.577 49.6446 666.797 54.2299 666.797 74.6708 649.577 70.6957Z" fill="#BA975C" transform="matrix(-1.0003 0 0 1 1200 26.0739)"/><path d="M679.516 57.611 695.991 61.994 695.991 81.3978 679.516 77.596Z" fill="#BA975C" transform="matrix(-1.0003 0 0 1 1200 26.0739)"/><path d="M708.716 65.3751 724.318 69.5301 724.318 87.9225 708.716 84.323Z" fill="#BA975C" transform="matrix(-1.0003 0 0 1 1200 26.0739)"/><path d="M666.794 295.585 666.794 316.026 649.577 316.938 649.577 295.887 666.797 295.585Z" fill="#BA975C" transform="matrix(-1.0003 0 0 1 1200 26.0739)"/><path d="M636.862 296.102 636.862 317.615 618.749 318.578 618.749 296.423Z" fill="#BA975C" transform="matrix(-1.0003 0 0 1 1200 26.0739)"/><path d="M606.036 296.657 606.036 319.25 586.963 320.261 586.963 296.991Z" fill="#BA975C" transform="matrix(-1.0003 0 0 1 1200 26.0739)"/><path d="M724.318 322.701 724.318 341.084 708.716 342.468 708.716 323.523 724.318 322.692Z" fill="#BA975C" transform="matrix(-1.0003 0 0 1 1200 26.0739)"/><path d="M695.991 324.198 695.991 343.592 679.516 345.046 679.516 325.077Z" fill="#BA975C" transform="matrix(-1.0003 0 0 1 1200 26.0739)"/><path d="M606.036 328.976 606.036 351.571 586.96 353.257 586.96 329.987 606.036 328.976Z" fill="#BA975C" transform="matrix(-1.0003 0 0 1 1200 26.0739)"/><path d="M724.318 350.8 724.318 369.196 708.716 371.123 708.716 352.178Z" fill="#BA975C" transform="matrix(-1.0003 0 0 1 1200 26.0739)"/><path d="M666.794 355.906 666.794 376.324 649.577 378.476 649.577 357.434 666.797 355.906Z" fill="#BA975C" transform="matrix(-1.0003 0 0 1 1200 26.0739)"/><path d="M636.862 358.565 636.862 380.052 618.749 382.3 618.749 360.164Z" fill="#BA975C" transform="matrix(-1.0003 0 0 1 1200 26.0739)"/><path d="M695.991 382.425 695.991 401.842 679.516 404.468 679.516 384.474 695.991 382.425Z" fill="#BA975C" transform="matrix(-1.0003 0 0 1 1200 26.0739)"/><path d="M666.794 386.06 666.794 406.507 649.574 409.253 649.574 388.205Z" fill="#BA975C" transform="matrix(-1.0003 0 0 1 1200 26.0739)"/><path d="M606.036 393.606 606.036 416.201 586.96 419.249 586.96 395.979Z" fill="#BA975C" transform="matrix(-1.0003 0 0 1 1200 26.0739)"/><path d="M724.318 407.066 724.318 425.471 708.716 428.515 708.716 409.571 724.318 407.079Z" fill="#BA975C" transform="matrix(-1.0003 0 0 1 1200 26.0739)"/><path d="M695.991 411.59 695.991 430.997 679.516 434.208 679.516 414.214 695.991 411.587Z" fill="#BA975C" transform="matrix(-1.0003 0 0 1 1200 26.0739)"/><path d="M636.862 421.027 636.862 442.541 618.749 446.073 618.749 423.936Z" fill="#BA975C" transform="matrix(-1.0003 0 0 1 1200 26.0739)"/><path d="M666.794 446.416 666.794 466.845 649.577 470.816 649.577 449.775Z" fill="#BA975C" transform="matrix(-1.0003 0 0 1 1200 26.0739)"/><path d="M724.318 463.316 724.318 481.711 708.716 485.863 708.716 466.918Z" fill="#BA975C" transform="matrix(-1.0003 0 0 1 1200 26.0739)"/><path d="M636.862 483.468 636.862 504.981 618.749 509.798 618.749 487.642Z" fill="#BA975C" transform="matrix(-1.0003 0 0 1 1200 26.0739)"/><path d="M928.24 399.655 909.164 399.89 909.164 415.565 928.24 415.8Z" fill="#BA975C" transform="matrix(-1.0003 0 0 1 1200 26.0739)"/><path d="M896.452 400.05 878.339 400.275 878.339 415.177 896.452 415.405 896.452 400.047Z" fill="#BA975C" transform="matrix(-1.0003 0 0 1 1200 26.0739)"/><path d="M835.684 400.792 819.209 400.994 819.209 414.48 835.684 414.679 835.684 400.808Z" fill="#BA975C" transform="matrix(-1.0003 0 0 1 1200 26.0739)"/><path d="M806.484 401.151 790.882 401.344 790.882 414.114 806.484 414.304 806.484 401.139Z" fill="#BA975C" transform="matrix(-1.0003 0 0 1 1200 26.0739)"/><path d="M778.166 401.502 763.428 401.685 763.428 413.771 778.166 413.954Z" fill="#BA975C" transform="matrix(-1.0003 0 0 1 1200 26.0739)"/><path d="M928.24 216.512 909.164 220.503 909.164 236.169 928.24 232.637 928.24 216.512Z" fill="#BA975C" transform="matrix(-1.0003 0 0 1 1200 26.0739)"/><path d="M896.452 223.162 878.339 226.954 878.339 241.859 896.452 238.52Z" fill="#BA975C" transform="matrix(-1.0003 0 0 1 1200 26.0739)"/><path d="M865.626 229.606 848.406 233.206 848.406 247.385 865.626 244.203Z" fill="#BA975C" transform="matrix(-1.0003 0 0 1 1200 26.0739)"/><path d="M835.684 235.867 819.209 239.319 819.209 252.773 835.684 249.732Z" fill="#BA975C" transform="matrix(-1.0003 0 0 1 1200 26.0739)"/><path d="M806.484 241.975 790.882 245.24 790.882 258.001 806.484 255.111Z" fill="#BA975C" transform="matrix(-1.0003 0 0 1 1200 26.0739)"/><path d="M778.166 247.886 763.428 250.969 763.428 263.061 778.166 260.338Z" fill="#BA975C" transform="matrix(-1.0003 0 0 1 1200 26.0739)"/><path d="M750.722 253.634 736.815 256.556 736.815 267.996 750.713 265.427 750.713 253.634Z" fill="#BA975C" transform="matrix(-1.0003 0 0 1 1200 26.0739)"/><path d="M736.815 547.469 736.815 558.912 750.713 561.802 750.713 550.037 736.815 547.469Z" fill="#BA975C" transform="matrix(-1.0003 0 0 1 1200 26.0739)"/><path d="M790.882 557.455 790.882 570.218 806.484 573.484 806.484 560.338Z" fill="#BA975C" transform="matrix(-1.0003 0 0 1 1200 26.0739)"/><path d="M848.406 568.07 848.406 582.253 865.626 585.852 865.626 571.252Z" fill="#BA975C" transform="matrix(-1.0003 0 0 1 1200 26.0739)"/><path d="M896.452 377.93 878.339 378.598 878.339 393.522 896.452 393.297Z" fill="#BA975C" transform="matrix(-1.0003 0 0 1 1200 26.0739)"/><path d="M865.626 379.07 848.406 379.712 848.406 393.892 865.626 393.683Z" fill="#BA975C" transform="matrix(-1.0003 0 0 1 1200 26.0739)"/><path d="M806.484 381.25 790.882 381.825 790.882 394.595 806.484 394.402Z" fill="#BA975C" transform="matrix(-1.0003 0 0 1 1200 26.0739)"/><path d="M778.166 382.294 763.428 382.836 763.428 394.948 778.166 394.765Z" fill="#BA975C" transform="matrix(-1.0003 0 0 1 1200 26.0739)"/><path d="M750.722 383.311 736.825 383.832 736.825 395.269 750.722 395.096Z" fill="#BA975C" transform="matrix(-1.0003 0 0 1 1200 26.0739)"/><path d="M928.24 353.873 909.164 355.042 909.164 370.718 928.24 370.018Z" fill="#BA975C" transform="matrix(-1.0003 0 0 1 1200 26.0739)"/><path d="M865.626 357.723 848.406 358.786 848.406 372.956 865.626 372.314Z" fill="#BA975C" transform="matrix(-1.0003 0 0 1 1200 26.0739)"/><path d="M835.684 359.57 819.209 360.581 819.209 374.035 835.684 373.425Z" fill="#BA975C" transform="matrix(-1.0003 0 0 1 1200 26.0739)"/><path d="M806.484 361.365 790.882 362.328 790.882 375.082 806.484 374.504 806.484 361.368Z" fill="#BA975C" transform="matrix(-1.0003 0 0 1 1200 26.0739)"/><path d="M778.166 363.102 763.428 364.014 763.428 376.09 778.166 375.547Z" fill="#BA975C" transform="matrix(-1.0003 0 0 1 1200 26.0739)"/><path d="M750.722 364.791 736.825 365.648 736.825 377.082 750.722 376.565Z" fill="#BA975C" transform="matrix(-1.0003 0 0 1 1200 26.0739)"/><path d="M928.24 330.976 909.164 332.62 909.164 348.286 928.24 347.117Z" fill="#BA975C" transform="matrix(-1.0003 0 0 1 1200 26.0739)"/><path d="M896.452 333.715 878.339 335.275 878.339 350.184 896.452 349.073Z" fill="#BA975C" transform="matrix(-1.0003 0 0 1 1200 26.0739)"/><path d="M865.626 336.37 848.406 337.857 848.406 352.027 865.626 350.967Z" fill="#BA975C" transform="matrix(-1.0003 0 0 1 1200 26.0739)"/><path d="M835.684 338.949 819.209 340.371 819.209 353.825 835.684 352.814 835.684 338.949Z" fill="#BA975C" transform="matrix(-1.0003 0 0 1 1200 26.0739)"/><path d="M806.484 341.463 790.882 342.808 790.882 355.569 806.484 354.605Z" fill="#BA975C" transform="matrix(-1.0003 0 0 1 1200 26.0739)"/><path d="M750.722 346.267 736.825 347.461 736.825 358.892 750.722 358.022Z" fill="#BA975C" transform="matrix(-1.0003 0 0 1 1200 26.0739)"/><path d="M928.24 308.082 909.164 310.198 909.164 325.871 928.24 324.227 928.24 308.082Z" fill="#BA975C" transform="matrix(-1.0003 0 0 1 1200 26.0739)"/><path d="M896.452 311.598 878.339 313.605 878.339 328.526 896.452 326.966Z" fill="#BA975C" transform="matrix(-1.0003 0 0 1 1200 26.0739)"/><path d="M865.626 315.014 848.406 316.922 848.406 331.111 865.626 329.624Z" fill="#BA975C" transform="matrix(-1.0003 0 0 1 1200 26.0739)"/><path d="M835.684 318.331 819.209 320.152 819.209 333.638 835.684 332.219Z" fill="#BA975C" transform="matrix(-1.0003 0 0 1 1200 26.0739)"/><path d="M806.484 321.561 790.882 323.292 790.882 336.059 806.484 334.717Z" fill="#BA975C" transform="matrix(-1.0003 0 0 1 1200 26.0739)"/><path d="M778.166 324.695 763.428 326.33 763.428 338.435 778.166 337.151Z" fill="#BA975C" transform="matrix(-1.0003 0 0 1 1200 26.0739)"/><path d="M750.722 327.733 736.825 329.271 736.825 340.712 750.722 339.517Z" fill="#BA975C" transform="matrix(-1.0003 0 0 1 1200 26.0739)"/><path d="M928.24 285.191 909.164 287.76 909.164 303.436 928.24 301.323Z" fill="#BA975C" transform="matrix(-1.0003 0 0 1 1200 26.0739)"/><path d="M896.452 289.494 878.339 291.94 878.339 306.855 896.452 304.852Z" fill="#BA975C" transform="matrix(-1.0003 0 0 1 1200 26.0739)"/><path d="M865.626 293.661 848.406 295.989 848.406 310.179 865.626 308.275Z" fill="#BA975C" transform="matrix(-1.0003 0 0 1 1200 26.0739)"/><path d="M835.684 297.71 819.209 299.958 819.209 313.39 835.684 311.569 835.684 297.698Z" fill="#BA975C" transform="matrix(-1.0003 0 0 1 1200 26.0739)"/><path d="M806.484 301.66 790.882 303.773 790.882 316.543 806.484 314.815Z" fill="#BA975C" transform="matrix(-1.0003 0 0 1 1200 26.0739)"/><path d="M778.166 305.494 763.428 307.491 763.428 319.584 778.166 317.946Z" fill="#BA975C" transform="matrix(-1.0003 0 0 1 1200 26.0739)"/><path d="M750.722 309.215 736.825 311.094 736.825 322.525 750.722 320.99Z" fill="#BA975C" transform="matrix(-1.0003 0 0 1 1200 26.0739)"/><path d="M928.24 262.3 909.164 265.35 909.164 281.026 928.24 278.458 928.24 262.3Z" fill="#BA975C" transform="matrix(-1.0003 0 0 1 1200 26.0739)"/><path d="M896.452 267.386 878.339 270.276 878.339 285.181 896.452 282.735Z" fill="#BA975C" transform="matrix(-1.0003 0 0 1 1200 26.0739)"/><path d="M865.626 272.315 848.406 275.07 848.406 289.243 865.626 286.912 865.626 272.315Z" fill="#BA975C" transform="matrix(-1.0003 0 0 1 1200 26.0739)"/><path d="M835.684 277.106 819.209 279.745 819.209 293.199 835.684 290.971Z" fill="#BA975C" transform="matrix(-1.0003 0 0 1 1200 26.0739)"/><path d="M806.484 281.768 790.882 284.266 790.882 297.014 806.484 294.901Z" fill="#BA975C" transform="matrix(-1.0003 0 0 1 1200 26.0739)"/><path d="M778.166 286.296 763.428 288.649 763.428 300.742 778.166 298.748 778.166 286.296Z" fill="#BA975C" transform="matrix(-1.0003 0 0 1 1200 26.0739)"/><path d="M750.722 290.688 736.825 292.91 736.825 304.341 750.722 302.472Z" fill="#BA975C" transform="matrix(-1.0003 0 0 1 1200 26.0739)"/><path d="M928.24 239.403 909.164 242.919 909.164 258.595 928.24 255.544 928.24 239.403Z" fill="#BA975C" transform="matrix(-1.0003 0 0 1 1200 26.0739)"/><path d="M896.452 245.263 878.339 248.605 878.339 263.53 896.452 260.64Z" fill="#BA975C" transform="matrix(-1.0003 0 0 1 1200 26.0739)"/><path d="M865.626 250.952 848.406 254.135 848.406 268.314 865.626 265.559Z" fill="#BA975C" transform="matrix(-1.0003 0 0 1 1200 26.0739)"/><path d="M835.684 256.479 819.209 259.519 819.209 272.983 835.684 270.343Z" fill="#BA975C" transform="matrix(-1.0003 0 0 1 1200 26.0739)"/><path d="M806.484 261.867 790.882 264.756 790.882 277.52 806.484 275.022Z" fill="#BA975C" transform="matrix(-1.0003 0 0 1 1200 26.0739)"/><path d="M778.166 267.094 763.428 269.817 763.428 281.893 778.166 279.54Z" fill="#BA975C" transform="matrix(-1.0003 0 0 1 1200 26.0739)"/><path d="M750.722 272.164 736.825 274.733 736.825 286.161 750.722 283.939 750.722 272.164Z" fill="#BA975C" transform="matrix(-1.0003 0 0 1 1200 26.0739)"/><path d="M736.815 420.202 736.815 431.633 750.713 432.15 750.713 420.375 736.815 420.202Z" fill="#BA975C" transform="matrix(-1.0003 0 0 1 1200 26.0739)"/><path d="M790.882 420.87 790.882 433.637 806.484 434.215 806.484 421.05 790.882 420.86Z" fill="#BA975C" transform="matrix(-1.0003 0 0 1 1200 26.0739)"/><path d="M848.406 421.58 848.406 435.759 865.626 436.401 865.626 421.795 848.406 421.586Z" fill="#BA975C" transform="matrix(-1.0003 0 0 1 1200 26.0739)"/><path d="M909.164 422.321 909.164 437.997 928.24 438.7 928.24 422.562Z" fill="#BA975C" transform="matrix(-1.0003 0 0 1 1200 26.0739)"/><path d="M763.428 439.375 763.428 451.461 778.166 452.373 778.166 439.927Z" fill="#BA975C" transform="matrix(-1.0003 0 0 1 1200 26.0739)"/><path d="M819.209 441.43 819.209 454.884 835.684 455.895 835.684 442.04Z" fill="#BA975C" transform="matrix(-1.0003 0 0 1 1200 26.0739)"/><path d="M848.406 442.509 848.406 456.679 865.626 457.741 865.626 443.141 848.406 442.499Z" fill="#BA975C" transform="matrix(-1.0003 0 0 1 1200 26.0739)"/><path d="M878.339 443.61 878.339 458.525 896.452 459.636 896.452 444.278Z" fill="#BA975C" transform="matrix(-1.0003 0 0 1 1200 26.0739)"/><path d="M909.164 444.747 909.164 460.423 928.24 461.591 928.24 445.447Z" fill="#BA975C" transform="matrix(-1.0003 0 0 1 1200 26.0739)"/><path d="M736.815 456.563 736.815 467.997 750.713 469.189 750.713 457.424 736.815 456.563Z" fill="#BA975C" transform="matrix(-1.0003 0 0 1 1200 26.0739)"/><path d="M790.882 459.886 790.882 472.653 806.484 473.999 806.484 460.853Z" fill="#BA975C" transform="matrix(-1.0003 0 0 1 1200 26.0739)"/><path d="M848.406 463.428 848.406 477.601 865.626 479.088 865.626 464.488 848.406 463.428Z" fill="#BA975C" transform="matrix(-1.0003 0 0 1 1200 26.0739)"/><path d="M878.339 465.268 878.339 480.173 896.452 481.737 896.452 466.379Z" fill="#BA975C" transform="matrix(-1.0003 0 0 1 1200 26.0739)"/><path d="M736.815 474.743 736.815 486.184 750.713 487.722 750.713 475.938 736.815 474.743Z" fill="#BA975C" transform="matrix(-1.0003 0 0 1 1200 26.0739)"/><path d="M763.428 477.033 763.428 489.125 778.166 490.763 778.166 478.301Z" fill="#BA975C" transform="matrix(-1.0003 0 0 1 1200 26.0739)"/><path d="M790.882 479.396 790.882 492.166 806.484 493.894 806.484 480.729Z" fill="#BA975C" transform="matrix(-1.0003 0 0 1 1200 26.0739)"/><path d="M819.209 481.833 819.209 495.319 835.684 497.14 835.684 483.249 819.209 481.83Z" fill="#BA975C" transform="matrix(-1.0003 0 0 1 1200 26.0739)"/><path d="M909.164 489.585 909.164 505.26 928.24 507.373 928.24 491.229Z" fill="#BA975C" transform="matrix(-1.0003 0 0 1 1200 26.0739)"/><path d="M763.428 495.881 763.428 507.974 778.166 509.971 778.166 497.519Z" fill="#BA975C" transform="matrix(-1.0003 0 0 1 1200 26.0739)"/><path d="M848.406 505.293 848.406 519.475 865.626 521.803 865.626 507.197Z" fill="#BA975C" transform="matrix(-1.0003 0 0 1 1200 26.0739)"/><path d="M736.815 511.124 736.815 522.555 750.713 524.777 750.713 513.002 736.815 511.124Z" fill="#BA975C" transform="matrix(-1.0003 0 0 1 1200 26.0739)"/><path d="M790.882 518.438 790.882 531.199 806.484 533.697 806.484 520.551Z" fill="#BA975C" transform="matrix(-1.0003 0 0 1 1200 26.0739)"/><path d="M819.209 522.272 819.209 535.726 835.684 538.365 835.684 524.5Z" fill="#BA975C" transform="matrix(-1.0003 0 0 1 1200 26.0739)"/><path d="M878.339 530.271 878.339 545.179 896.452 548.069 896.452 532.711Z" fill="#BA975C" transform="matrix(-1.0003 0 0 1 1200 26.0739)"/><path d="M909.164 534.438 909.164 550.114 928.24 553.165 928.24 537.02Z" fill="#BA975C" transform="matrix(-1.0003 0 0 1 1200 26.0739)"/><path d="M763.428 533.562 763.428 545.638 778.166 548.361 778.166 535.909Z" fill="#BA975C" transform="matrix(-1.0003 0 0 1 1200 26.0739)"/><path d="M848.406 547.147 848.406 561.33 865.626 564.512 865.626 549.906 848.406 547.147Z" fill="#BA975C" transform="matrix(-1.0003 0 0 1 1200 26.0739)"/><path d="M928.24 399.655 947.313 399.89 947.313 415.565 928.24 415.8Z" fill="#BA975C" transform="matrix(-1.0003 0 0 1 1200 26.0739)"/><path d="M960.029 400.05 978.138 400.275 978.138 415.177 960.029 415.405 960.029 400.047Z" fill="#BA975C" transform="matrix(-1.0003 0 0 1 1200 26.0739)"/><path d="M990.854 400.426 1008.07 400.635 1008.07 414.824 990.854 415.033Z" fill="#BA975C" transform="matrix(-1.0003 0 0 1 1200 26.0739)"/><path d="M1049.98 401.151 1065.59 401.344 1065.59 414.114 1049.98 414.304 1049.98 401.139Z" fill="#BA975C" transform="matrix(-1.0003 0 0 1 1200 26.0739)"/><path d="M1078.31 401.502 1093.05 401.685 1093.05 413.771 1078.31 413.954Z" fill="#BA975C" transform="matrix(-1.0003 0 0 1 1200 26.0739)"/><path d="M928.24 216.512 947.313 220.503 947.313 236.169 928.24 232.637 928.24 216.512Z" fill="#BA975C" transform="matrix(-1.0003 0 0 1 1200 26.0739)"/><path d="M960.029 223.162 978.138 226.954 978.138 241.859 960.029 238.52Z" fill="#BA975C" transform="matrix(-1.0003 0 0 1 1200 26.0739)"/><path d="M990.854 229.606 1008.07 233.206 1008.07 247.385 990.854 244.203Z" fill="#BA975C" transform="matrix(-1.0003 0 0 1 1200 26.0739)"/><path d="M1020.8 235.867 1037.27 239.319 1037.27 252.773 1020.8 249.732Z" fill="#BA975C" transform="matrix(-1.0003 0 0 1 1200 26.0739)"/><path d="M1049.98 241.975 1065.59 245.24 1065.59 258.001 1049.98 255.111Z" fill="#BA975C" transform="matrix(-1.0003 0 0 1 1200 26.0739)"/><path d="M1078.31 247.886 1093.05 250.969 1093.05 263.061 1078.31 260.338Z" fill="#BA975C" transform="matrix(-1.0003 0 0 1 1200 26.0739)"/><path d="M1105.76 253.634 1119.66 256.556 1119.66 267.996 1105.76 265.427 1105.76 253.634Z" fill="#BA975C" transform="matrix(-1.0003 0 0 1 1200 26.0739)"/><path d="M1119.66 547.469 1119.66 558.912 1105.76 561.802 1105.76 550.037 1119.66 547.469Z" fill="#BA975C" transform="matrix(-1.0003 0 0 1 1200 26.0739)"/><path d="M1008.07 568.07 1008.07 582.253 990.854 585.852 990.854 571.252Z" fill="#BA975C" transform="matrix(-1.0003 0 0 1 1200 26.0739)"/><path d="M928.24 376.764 947.313 377.467 947.313 393.143 928.24 392.909 928.24 376.764Z" fill="#BA975C" transform="matrix(-1.0003 0 0 1 1200 26.0739)"/><path d="M990.854 379.07 1008.07 379.712 1008.07 393.892 990.854 393.683Z" fill="#BA975C" transform="matrix(-1.0003 0 0 1 1200 26.0739)"/><path d="M1020.8 380.178 1037.27 380.788 1037.27 394.251 1020.8 394.052Z" fill="#BA975C" transform="matrix(-1.0003 0 0 1 1200 26.0739)"/><path d="M1049.98 381.25 1065.59 381.825 1065.59 394.595 1049.98 394.402Z" fill="#BA975C" transform="matrix(-1.0003 0 0 1 1200 26.0739)"/><path d="M1105.76 383.311 1119.66 383.832 1119.66 395.269 1105.76 395.096Z" fill="#BA975C" transform="matrix(-1.0003 0 0 1 1200 26.0739)"/><path d="M928.24 353.873 947.313 355.042 947.313 370.718 928.24 370.018Z" fill="#BA975C" transform="matrix(-1.0003 0 0 1 1200 26.0739)"/><path d="M960.029 355.829 978.138 356.94 978.138 371.855 960.029 371.187Z" fill="#BA975C" transform="matrix(-1.0003 0 0 1 1200 26.0739)"/><path d="M990.854 357.723 1008.07 358.786 1008.07 372.956 990.854 372.314Z" fill="#BA975C" transform="matrix(-1.0003 0 0 1 1200 26.0739)"/><path d="M1049.98 361.365 1065.59 362.328 1065.59 375.082 1049.98 374.504 1049.98 361.368Z" fill="#BA975C" transform="matrix(-1.0003 0 0 1 1200 26.0739)"/><path d="M1078.31 363.102 1093.05 364.014 1093.05 376.09 1078.31 375.547Z" fill="#BA975C" transform="matrix(-1.0003 0 0 1 1200 26.0739)"/><path d="M1105.76 364.791 1119.66 365.648 1119.66 377.082 1105.76 376.565Z" fill="#BA975C" transform="matrix(-1.0003 0 0 1 1200 26.0739)"/><path d="M928.24 330.976 947.313 332.62 947.313 348.286 928.24 347.117Z" fill="#BA975C" transform="matrix(-1.0003 0 0 1 1200 26.0739)"/><path d="M960.029 333.715 978.138 335.275 978.138 350.184 960.029 349.073Z" fill="#BA975C" transform="matrix(-1.0003 0 0 1 1200 26.0739)"/><path d="M1020.8 338.949 1037.27 340.371 1037.27 353.825 1020.8 352.814 1020.8 338.949Z" fill="#BA975C" transform="matrix(-1.0003 0 0 1 1200 26.0739)"/><path d="M1078.31 343.894 1093.05 345.178 1093.05 357.264 1078.31 356.352Z" fill="#BA975C" transform="matrix(-1.0003 0 0 1 1200 26.0739)"/><path d="M928.24 308.082 947.313 310.198 947.313 325.871 928.24 324.227 928.24 308.082Z" fill="#BA975C" transform="matrix(-1.0003 0 0 1 1200 26.0739)"/><path d="M990.854 315.014 1008.07 316.918 1008.07 331.108 990.854 329.621Z" fill="#BA975C" transform="matrix(-1.0003 0 0 1 1200 26.0739)"/><path d="M1020.8 318.331 1037.27 320.152 1037.27 333.638 1020.8 332.219Z" fill="#BA975C" transform="matrix(-1.0003 0 0 1 1200 26.0739)"/><path d="M1049.98 321.561 1065.59 323.292 1065.59 336.059 1049.98 334.717Z" fill="#BA975C" transform="matrix(-1.0003 0 0 1 1200 26.0739)"/><path d="M1078.31 324.695 1093.05 326.33 1093.05 338.435 1078.31 337.151Z" fill="#BA975C" transform="matrix(-1.0003 0 0 1 1200 26.0739)"/><path d="M1105.76 327.733 1119.66 329.271 1119.66 340.712 1105.76 339.517Z" fill="#BA975C" transform="matrix(-1.0003 0 0 1 1200 26.0739)"/><path d="M928.24 285.191 947.313 287.76 947.313 303.436 928.24 301.323Z" fill="#BA975C" transform="matrix(-1.0003 0 0 1 1200 26.0739)"/><path d="M960.029 289.494 978.138 291.94 978.138 306.855 960.029 304.852Z" fill="#BA975C" transform="matrix(-1.0003 0 0 1 1200 26.0739)"/><path d="M990.854 293.661 1008.07 295.989 1008.07 310.179 990.854 308.275Z" fill="#BA975C" transform="matrix(-1.0003 0 0 1 1200 26.0739)"/><path d="M1020.8 297.71 1037.27 299.958 1037.27 313.39 1020.8 311.569 1020.8 297.698Z" fill="#BA975C" transform="matrix(-1.0003 0 0 1 1200 26.0739)"/><path d="M1049.98 301.66 1065.59 303.773 1065.59 316.543 1049.98 314.815Z" fill="#BA975C" transform="matrix(-1.0003 0 0 1 1200 26.0739)"/><path d="M1078.31 305.494 1093.05 307.491 1093.05 319.584 1078.31 317.946Z" fill="#BA975C" transform="matrix(-1.0003 0 0 1 1200 26.0739)"/><path d="M1105.76 309.215 1119.66 311.094 1119.66 322.525 1105.76 320.99Z" fill="#BA975C" transform="matrix(-1.0003 0 0 1 1200 26.0739)"/><path d="M928.24 262.3 947.313 265.35 947.313 281.026 928.24 278.458 928.24 262.3Z" fill="#BA975C" transform="matrix(-1.0003 0 0 1 1200 26.0739)"/><path d="M960.029 267.386 978.138 270.276 978.138 285.181 960.029 282.735Z" fill="#BA975C" transform="matrix(-1.0003 0 0 1 1200 26.0739)"/><path d="M990.854 272.315 1008.07 275.07 1008.07 289.243 990.854 286.912 990.854 272.315Z" fill="#BA975C" transform="matrix(-1.0003 0 0 1 1200 26.0739)"/><path d="M1020.8 277.106 1037.27 279.745 1037.27 293.199 1020.8 290.971Z" fill="#BA975C" transform="matrix(-1.0003 0 0 1 1200 26.0739)"/><path d="M1049.98 281.768 1065.59 284.266 1065.59 297.014 1049.98 294.914Z" fill="#BA975C" transform="matrix(-1.0003 0 0 1 1200 26.0739)"/><path d="M1078.31 286.296 1093.05 288.649 1093.05 300.742 1078.31 298.748 1078.31 286.296Z" fill="#BA975C" transform="matrix(-1.0003 0 0 1 1200 26.0739)"/><path d="M1105.76 290.688 1119.66 292.91 1119.66 304.341 1105.76 302.472Z" fill="#BA975C" transform="matrix(-1.0003 0 0 1 1200 26.0739)"/><path d="M928.24 239.403 947.313 242.919 947.313 258.595 928.24 255.544 928.24 239.403Z" fill="#BA975C" transform="matrix(-1.0003 0 0 1 1200 26.0739)"/><path d="M960.029 245.263 978.138 248.605 978.138 263.53 960.029 260.64Z" fill="#BA975C" transform="matrix(-1.0003 0 0 1 1200 26.0739)"/><path d="M990.854 250.952 1008.07 254.135 1008.07 268.314 990.854 265.546Z" fill="#BA975C" transform="matrix(-1.0003 0 0 1 1200 26.0739)"/><path d="M1020.8 256.479 1037.27 259.519 1037.27 272.983 1020.8 270.343Z" fill="#BA975C" transform="matrix(-1.0003 0 0 1 1200 26.0739)"/><path d="M1049.98 261.867 1065.59 264.756 1065.59 277.52 1049.98 275.012Z" fill="#BA975C" transform="matrix(-1.0003 0 0 1 1200 26.0739)"/><path d="M1078.31 267.094 1093.05 269.817 1093.05 281.893 1078.31 279.54Z" fill="#BA975C" transform="matrix(-1.0003 0 0 1 1200 26.0739)"/><path d="M1105.76 272.164 1119.66 274.733 1119.66 286.161 1105.76 283.939 1105.76 272.164Z" fill="#BA975C" transform="matrix(-1.0003 0 0 1 1200 26.0739)"/><path d="M1093.05 420.526 1093.05 432.629 1078.31 433.171 1078.31 420.709Z" fill="#BA975C" transform="matrix(-1.0003 0 0 1 1200 26.0739)"/><path d="M1037.27 421.22 1037.27 434.684 1020.8 435.29 1020.8 421.419 1037.27 421.22Z" fill="#BA975C" transform="matrix(-1.0003 0 0 1 1200 26.0739)"/><path d="M978.138 421.939 978.138 436.861 960.029 437.528 960.029 422.164 978.138 421.939Z" fill="#BA975C" transform="matrix(-1.0003 0 0 1 1200 26.0739)"/><path d="M1119.66 438.383 1119.66 449.814 1105.76 450.674 1105.76 438.9Z" fill="#BA975C" transform="matrix(-1.0003 0 0 1 1200 26.0739)"/><path d="M1065.6 440.386 1065.6 453.14 1050 454.103 1050 440.961 1065.6 440.386Z" fill="#BA975C" transform="matrix(-1.0003 0 0 1 1200 26.0739)"/><path d="M1037.27 441.43 1037.27 454.884 1020.8 455.895 1020.8 442.04Z" fill="#BA975C" transform="matrix(-1.0003 0 0 1 1200 26.0739)"/><path d="M1008.07 442.509 1008.07 456.679 990.854 457.741 990.854 443.141 1008.07 442.499Z" fill="#BA975C" transform="matrix(-1.0003 0 0 1 1200 26.0739)"/><path d="M947.313 444.747 947.313 460.423 928.24 461.591 928.24 445.447Z" fill="#BA975C" transform="matrix(-1.0003 0 0 1 1200 26.0739)"/><path d="M1119.66 456.563 1119.66 467.997 1105.76 469.189 1105.76 457.424 1119.66 456.563Z" fill="#BA975C" transform="matrix(-1.0003 0 0 1 1200 26.0739)"/><path d="M1093.05 458.204 1093.05 470.287 1078.31 471.571 1078.31 459.125Z" fill="#BA975C" transform="matrix(-1.0003 0 0 1 1200 26.0739)"/><path d="M1008.07 463.428 1008.07 477.601 990.854 479.088 990.854 464.488 1008.07 463.428Z" fill="#BA975C" transform="matrix(-1.0003 0 0 1 1200 26.0739)"/><path d="M978.138 465.268 978.138 480.173 960.029 481.737 960.029 466.379Z" fill="#BA975C" transform="matrix(-1.0003 0 0 1 1200 26.0739)"/><path d="M947.313 467.169 947.313 482.835 928.24 484.482 928.24 468.338 947.313 467.169Z" fill="#BA975C" transform="matrix(-1.0003 0 0 1 1200 26.0739)"/><path d="M1065.6 479.396 1065.6 492.166 1050 493.894 1050 480.729Z" fill="#BA975C" transform="matrix(-1.0003 0 0 1 1200 26.0739)"/><path d="M1037.27 481.833 1037.27 495.319 1020.8 497.14 1020.8 483.249 1037.27 481.83Z" fill="#BA975C" transform="matrix(-1.0003 0 0 1 1200 26.0739)"/><path d="M947.313 489.585 947.313 505.26 928.24 507.373 928.24 491.229Z" fill="#BA975C" transform="matrix(-1.0003 0 0 1 1200 26.0739)"/><path d="M1093.05 495.881 1093.05 507.974 1078.31 509.971 1078.31 497.519Z" fill="#BA975C" transform="matrix(-1.0003 0 0 1 1200 26.0739)"/><path d="M1065.6 498.922 1065.6 511.689 1050 513.805 1050 500.64Z" fill="#BA975C" transform="matrix(-1.0003 0 0 1 1200 26.0739)"/><path d="M1008.07 505.293 1008.07 519.475 990.854 521.803 990.854 507.197Z" fill="#BA975C" transform="matrix(-1.0003 0 0 1 1200 26.0739)"/><path d="M978.138 508.616 978.138 523.531 960.029 525.978 960.029 510.62Z" fill="#BA975C" transform="matrix(-1.0003 0 0 1 1200 26.0739)"/><path d="M947.313 512.016 947.313 527.692 928.24 530.261 928.24 514.119 947.313 512.007Z" fill="#BA975C" transform="matrix(-1.0003 0 0 1 1200 26.0739)"/><path d="M1119.66 511.124 1119.66 522.555 1105.76 524.777 1105.76 513.002 1119.66 511.124Z" fill="#BA975C" transform="matrix(-1.0003 0 0 1 1200 26.0739)"/><path d="M1037.27 522.272 1037.27 535.726 1020.8 538.365 1020.8 524.5Z" fill="#BA975C" transform="matrix(-1.0003 0 0 1 1200 26.0739)"/><path d="M1093.05 533.562 1093.05 545.638 1078.31 548.361 1078.31 535.909Z" fill="#BA975C" transform="matrix(-1.0003 0 0 1 1200 26.0739)"/><path d="M1037.27 542.472 1037.27 555.936 1020.8 558.977 1020.8 545.112Z" fill="#BA975C" transform="matrix(-1.0003 0 0 1 1200 26.0739)"/><path d="M978.138 551.929 978.138 566.85 960.029 570.192 960.029 554.825Z" fill="#BA975C" transform="matrix(-1.0003 0 0 1 1200 26.0739)"/></g></svg>